<?xml version="1.0"?><svg width="640" height="480" xmlns="http://www.w3.org/2000/svg">
 <title>Blue Telephone Symbol</title>
 <g>
  <title>Layer 1</title>
  <g id="Layer_x0020_1">
   <metadata fill="#0000ff" id="CorelCorpID_0Corel-Layer"/>
   <g id="_152222920">
    <path fill="#0000ff" d="m277.401581,183.708481c-44.229431,25.53508 23.254852,152.049362 71.653381,124.106522c8.594696,14.886566 36.278564,62.837646 44.873383,77.72345c-20.419952,11.790283 -37.70459,19.222992 -61.379242,5.68927c-65.732635,-37.576233 -138.086838,-162.852112 -136.028259,-237.57341c0.7146,-25.9533 16.00563,-36.122704 36.006546,-47.67012c8.594803,14.886612 36.279373,62.837677 44.873367,77.724289l0.000824,0z" class="fil0" id="_152222248"/>
    <path fill="#0000ff" d="m295.95459,181.600372c-4.778809,2.759247 -10.928589,1.112305 -13.688293,-3.667023l-42.304077,-73.27314c-2.759659,-4.779938 -1.112717,-10.929146 3.666626,-13.688812l22.234009,-12.836571c4.779327,-2.75972 10.930084,-1.111275 13.689331,3.668045l42.303986,73.272614c2.759216,4.778961 1.111847,10.92868 -3.667053,13.687836l-22.234528,12.837051z" class="fil0" id="_150519168"/>
    <path fill="#0000ff" d="m411.525604,381.776245c-4.778839,2.759155 -10.92865,1.112213 -13.688324,-3.667603l-42.304077,-73.273071c-2.759644,-4.779449 -1.11264,-10.929169 3.666626,-13.688263l22.234009,-12.837189c4.779327,-2.759155 10.930084,-1.110779 13.68924,3.668121l42.304169,73.272552c2.759094,4.779449 1.111694,10.929169 -3.667114,13.688385l-22.234528,12.837067z" class="fil0" id="_226148072"/>
   </g>
   <path fill="#0000ff" d="m317.640594,1l0.003479,0l0,0.05514c65.370239,0.00099 124.528778,26.473279 167.320038,69.265249c42.789429,42.789993 69.260803,101.944687 69.262817,167.312714l0.054993,0l0,0.007507l0,0.003479l-0.054993,0c-0.000977,65.370773 -26.473389,124.528732 -69.265381,167.320023c-42.790558,42.78949 -101.945435,69.260864 -167.313477,69.262817l0,0.055054l-0.007477,0l-0.003601,0l0,-0.055054c-65.370224,-0.000977 -124.527939,-26.473328 -167.319229,-69.265411c-42.789497,-42.790405 -69.260796,-101.945374 -69.262711,-167.3134l-0.055084,0l0,-0.007507l0,-0.003479l0.055084,0c0.001045,-65.370255 26.473213,-124.527931 69.265244,-167.319214c42.789993,-42.789497 101.944687,-69.260857 167.312729,-69.262777l0,-0.05514l0.007568,0zm0.003479,28.22537l0,0.05514l-0.003479,0l-0.007568,0l0,-0.05514c-57.486877,0.001419 -109.577972,23.34878 -147.317444,61.087893c-37.741592,37.741089 -61.089935,89.834473 -61.090431,147.323975l0.055145,0l0,0.003448l0,0.007568l-0.055145,0c0.001549,57.487274 23.348839,109.578033 61.087883,147.318176c37.741089,37.741638 89.834457,61.089905 147.323959,61.090424l0,-0.055084l0.00354,0l0.007538,0l0,0.055084c57.487366,-0.001495 109.577911,-23.348785 147.318268,-61.087891c37.741608,-37.741089 61.089935,-89.834473 61.090424,-147.324738l-0.055176,0l0,-0.00354l0,-0.007431l0.055176,0c-0.001526,-57.486969 -23.348816,-109.578049 -61.08783,-147.317528c-37.741211,-37.741577 -89.834564,-61.089867 -147.32486,-61.090357z" class="fil1" id="svg_1"/>
  </g>
 </g>
</svg>